<?xml version="1.0" standalone="no"?><!DOCTYPE svg PUBLIC "-//W3C//DTD SVG 1.1//EN" "http://www.w3.org/Graphics/SVG/1.1/DTD/svg11.dtd"><svg class="icon" width="16px" height="16.00px" viewBox="0 0 1024 1024" version="1.1" xmlns="http://www.w3.org/2000/svg"><path d="M899.072 658.432c36.864 0 68.608 15.36 94.208 36.864l-81.92-584.704c-6.144-47.104-47.104-81.92-94.208-81.92H206.848c-47.104 0-88.064 32.768-96.256 81.92l-81.92 584.704c25.6-21.504 58.368-36.864 96.256-36.864h774.144z m0 47.104H124.928c-53.248 0-96.256 43.008-96.256 96.256v97.28c0 53.248 43.008 96.256 96.256 96.256h774.144c53.248 0 96.256-43.008 96.256-96.256v-97.28c0-53.248-41.984-96.256-96.256-96.256zM815.104 890.88h-60.416c-17.408 0-29.696-13.312-29.696-29.696 0-17.408 13.312-29.696 29.696-29.696h60.416c17.408 0 29.696 13.312 29.696 29.696 1.024 16.384-12.288 29.696-29.696 29.696z m79.872 0c-17.408 0-29.696-13.312-29.696-29.696 0-17.408 13.312-29.696 29.696-29.696s29.696 13.312 29.696 29.696c0 16.384-12.288 29.696-29.696 29.696z" fill="#adbabf" /></svg>