<?xml version="1.0" standalone="no"?><!DOCTYPE svg PUBLIC "-//W3C//DTD SVG 1.1//EN" "http://www.w3.org/Graphics/SVG/1.1/DTD/svg11.dtd"><svg class="icon" width="16px" height="16.00px" viewBox="0 0 1024 1024" version="1.1" xmlns="http://www.w3.org/2000/svg"><path d="M842.285307 833.406343c0 45.611118-36.975413 82.464901-82.464901 82.464901H265.031001c-45.611118 0-82.464901-36.975413-82.464901-82.464901V173.565507c0-45.611118 36.975413-82.464901 82.464901-82.464901h494.911035c45.611118 0 82.464901 36.975413 82.464901 82.464901v659.840836z" fill="#221F20" /><path d="M842.285307 792.173892c0 45.611118-36.975413 82.464901-82.464901 82.464901H265.031001c-45.611118 0-82.464901-36.975413-82.464901-82.464901V132.333056C182.5661 86.843568 219.419884 49.868155 265.031001 49.868155h494.911035c45.611118 0 82.464901 36.975413 82.464901 82.464901v659.840836z" fill="#4D5B71" /><path d="M574.335194 91.100606v161.767431c0 5.473334 3.40563 10.33852 8.514076 12.406224 1.702815 0.729778 3.52726 0.973037 5.230074 0.973037 3.52726 0 7.05452-1.337926 9.730372-3.892149l58.990379-57.895712 58.990379 57.895712c2.675852 2.554223 6.203112 3.892149 9.730372 3.892149 1.824445 0 3.52726-0.364889 5.230075-0.973037 5.108445-2.067704 8.514075-7.05452 8.514075-12.406224v-161.767431H574.335194z" fill="#221F20" /><path d="M574.335194 49.868155v161.767431c0 5.473334 3.40563 10.33852 8.514076 12.406224 1.702815 0.729778 3.52726 0.973037 5.230074 0.973037 3.52726 0 7.05452-1.337926 9.730372-3.892148l58.990379-57.895712 58.990379 57.895712c2.675852 2.554223 6.203112 3.892149 9.730372 3.892148 1.824445 0 3.52726-0.364889 5.230075-0.973037 5.108445-2.067704 8.514075-7.05452 8.514075-12.406224V49.868155H574.335194z" fill="#BE595A" /><path d="M265.031001 49.868155h61.909491v824.770638H265.031001z" fill="#DFDECF" /></svg>