<?xml version="1.0" standalone="no"?><!DOCTYPE svg PUBLIC "-//W3C//DTD SVG 1.1//EN" "http://www.w3.org/Graphics/SVG/1.1/DTD/svg11.dtd"><svg class="icon" width="16px" height="16.00px" viewBox="0 0 1024 1024" version="1.1" xmlns="http://www.w3.org/2000/svg"><path d="M616.746667 85.333333L896 347.904V853.333333a85.333333 85.333333 0 0 1-85.333333 85.333334H213.333333a85.333333 85.333333 0 0 1-85.333333-85.333334V170.666667a85.333333 85.333333 0 0 1 85.333333-85.333334h403.413334z m244.352 295.381334L581.802667 118.186667v177.237333a85.333333 85.333333 0 0 0 85.333333 85.333333h193.962667z m-174.549334 393.813333l-139.349333-173.397333 122.666667-154.752h-72.576l-86.4 112-87.04-112H351.189333l123.392 155.349333-137.173333 172.8h71.850667l101.589333-130.048 102.357333 130.090667h73.301334z" fill="#68BE96" /></svg>