<?xml version="1.0" standalone="no"?><!DOCTYPE svg PUBLIC "-//W3C//DTD SVG 1.1//EN" "http://www.w3.org/Graphics/SVG/1.1/DTD/svg11.dtd"><svg class="icon" width="16px" height="16.00px" viewBox="0 0 1024 1024" version="1.1" xmlns="http://www.w3.org/2000/svg"><path d="M707.2 79.9H238.6c-11.6 0-21 9.4-21 21V923c0 11.6 9.4 21 21 21h704.9V316.3L707.2 79.9" fill="#FFFFFF" /><path d="M943.6 960h-705c-20.4 0-37-16.6-37-37V100.9c0-20.4 16.6-37 37-37h468.6c4.2 0 8.3 1.7 11.3 4.7L954.9 305c3 3 4.7 7.1 4.7 11.3V944c0 8.9-7.2 16-16 16z m-705-864.1c-2.7 0-5 2.2-5 5V923c0 2.7 2.2 5 5 5h689V323l-227-227h-462z" fill="#00365B" /><path d="M943.6 316.3H707.2V79.9z" fill="#FFFFFF" /><path d="M943.6 332.3H707.2c-8.8 0-16-7.2-16-16V79.9c0-6.5 3.9-12.3 9.9-14.8s12.9-1.1 17.4 3.5L954.9 305c4.6 4.6 5.9 11.5 3.5 17.4-2.5 6-8.3 9.9-14.8 9.9z m-220.4-32H905L723.2 118.6v181.7z" fill="#00365B" /><path d="M104.7 414.2h698.8c22.4 0 40.6 19.8 40.6 44.3v301.4c0 24.5-18.2 44.3-40.6 44.3H104.7c-22.4 0-40.6-19.8-40.6-44.3V458.5c-0.1-24.5 18.1-44.3 40.6-44.3z" fill="#B56FE1" /><path d="M241.2 736c4.5 0 8.9-1.6 13.2-4.9 4.3-3.3 6.4-8.9 6.4-17 0-7.8-2-13.4-6-16.8s-8.6-5.1-13.6-5.1h-74V488.3c0-6-2.3-10.8-6.8-14.2-4.5-3.4-10.4-5.1-17.7-5.1-6.8 0-12.6 1.7-17.4 5.1-4.8 3.4-7.2 8.1-7.2 14.2v220.5c0 7.6 2.4 14 7.2 19.3 4.8 5.3 11.3 7.9 19.6 7.9h96.3z m162.8 7.5c20.4 0 38.1-3.6 53-10.8 15-7.2 27.4-17 37.2-29.5 9.8-12.5 17.1-27.2 21.9-44.2 4.8-17 7.2-35.3 7.2-54.9s-2.4-37.9-7.2-54.7c-4.8-16.9-12.1-31.5-21.9-44C484.4 493 472 483.2 457 476c-15-7.2-32.7-10.8-53-10.8-21.1 0-39.2 3.6-54.2 10.8-15 7.2-27.3 17-37 29.5s-16.8 27.2-21.3 44.2c-4.5 17-6.8 35.2-6.8 54.6 0 20.1 2.5 38.8 7.6 55.9 5 17.1 12.6 31.8 22.7 44.2 10.1 12.3 22.5 22 37.4 28.9s31.9 10.2 51.6 10.2z m0-43c-13.3 0-24.5-2.8-33.4-8.3-8.9-5.5-16.2-12.8-21.7-21.9-5.5-9.1-9.4-19.4-11.7-31-2.3-11.6-3.4-23.3-3.4-35.1 0-13.1 1.3-25.4 3.8-37 2.5-11.6 6.5-21.7 12.1-30.4 5.5-8.7 12.8-15.6 21.7-20.8 8.9-5.2 19.8-7.7 32.7-7.7s23.7 2.5 32.7 7.6c8.9 5 16.2 12 21.7 20.8s9.6 19.1 12.1 31c2.5 11.8 3.8 24.4 3.8 37.8 0 13.3-1.1 25.8-3.4 37.4-2.3 11.6-6.2 21.6-11.7 30.2-5.5 8.6-12.8 15.3-21.7 20.2-9.2 4.7-20.3 7.2-33.6 7.2z m278.2 43c20.4 0 37.6-3.2 51.7-9.6 14.1-6.4 25.6-15.1 34.5-26.1 8.9-10.9 15.4-23.6 19.3-37.9 3.9-14.3 5.9-29.5 5.9-45.3 0-13.1-1.8-22.3-5.3-27.6s-10.4-7.9-20.8-7.9h-63.1c-8.8 0-15.4 1.8-19.6 5.3-4.3 3.5-6.4 9.3-6.4 17.4 0 8.1 2 13.7 6 16.8 4 3.1 10.6 4.7 19.6 4.7h40.4c0 9.8-1.6 18.8-4.9 27-3.3 8.2-7.7 15.2-13.4 21.1-5.7 5.9-12.2 10.6-19.6 14s-15.4 5.1-24 5.1c-11.8 0-22.7-2.3-32.5-6.8s-18.2-10.9-25.3-19.3c-7-8.3-12.5-18.4-16.4-30.2-3.9-11.8-5.9-25.2-5.9-40 0-14.6 2-27.8 6-39.6s9.4-21.9 16.2-30.2c6.8-8.3 14.9-14.7 24.2-19.3 9.3-4.5 19.3-6.8 29.8-6.8 12.1 0 22.6 2 31.5 5.9 8.9 3.9 18.4 11.3 28.5 22.1 3 3 6.3 5 9.8 6 3.5 1 7 1.4 10.6 1.1 3.5-0.3 6.9-1.1 10-2.6 3.1-1.5 5.9-3.3 8.1-5.3 4.5-3.3 6.6-7.2 6.2-11.9-0.4-4.7-2.3-9.4-5.9-14.3-3.5-4.9-8.2-9.8-14-14.7-5.8-4.9-12.1-9.5-18.9-13.8-11.3-6.5-22-10.8-32.1-12.6-10.1-1.9-20.9-2.8-32.5-2.8-20.1 0-38.1 3.6-53.8 10.9-15.7 7.3-29 17.2-39.8 29.8-10.8 12.6-19.1 27.4-24.7 44.6-5.7 17.1-8.5 35.6-8.5 55.5 0 20.9 3 39.8 8.9 56.6 5.9 16.9 14.5 31.3 25.7 43.2 11.2 12 24.7 21.2 40.6 27.8 16.2 6.5 34 9.7 53.9 9.7z" fill="#FFFFFF" /></svg>