<?xml version="1.0" standalone="no"?><!DOCTYPE svg PUBLIC "-//W3C//DTD SVG 1.1//EN" "http://www.w3.org/Graphics/SVG/1.1/DTD/svg11.dtd"><svg class="icon" width="16px" height="16.00px" viewBox="0 0 1024 1024" version="1.1" xmlns="http://www.w3.org/2000/svg"><path d="M616.746667 85.333333L896 347.904V853.333333a85.333333 85.333333 0 0 1-85.333333 85.333334H213.333333a85.333333 85.333333 0 0 1-85.333333-85.333334V170.666667a85.333333 85.333333 0 0 1 85.333333-85.333334h403.413334z m244.352 295.381334L581.802667 118.186667v177.237333a85.333333 85.333333 0 0 0 85.333333 85.333333h193.962667z m-107.264 76.373333h-49.152l-79.488 227.157333-109.354667-227.114666h-13.226667l-110.506666 226.688-77.824-226.688H265.130667l113.749333 328.192h13.226667l117.12-239.36 114.858666 239.36h13.781334l115.968-328.192z" fill="#0F90E3" /></svg>