<?xml version="1.0" encoding="UTF-8"?>
<svg width="16px" height="16px" viewBox="0 0 16 16" version="1.1" xmlns="http://www.w3.org/2000/svg" xmlns:xlink="http://www.w3.org/1999/xlink">
    <title>Export_Import</title>
    <g id="一些图标" stroke="none" stroke-width="1" fill="none" fill-rule="evenodd">
        <g id="编组" fill="#467CFD" fill-rule="nonzero">
            <path d="M8,16 C3.582,16 0,12.418 0,8 C0,3.582 3.582,0 8,0 C12.418,0 16,3.582 16,8 C16,12.418 12.418,16 8,16 Z M4.82615975,10.520483 L3.75404141,10.520483 C3.54694749,10.5207324 3.35915658,10.6363006 3.27388895,10.8159732 C3.18862131,10.9956458 3.22164617,11.2061944 3.35832843,11.3543137 L5.23136983,13.3766043 C5.33152903,13.4847262 5.47565634,13.5466667 5.62708281,13.5466667 C5.77850928,13.5466667 5.92263659,13.4847262 6.02279578,13.3766043 L7.89583721,11.3563229 C8.03251947,11.2082036 8.06554433,10.997655 7.98027669,10.8179824 C7.89500906,10.6383098 7.70721815,10.5227416 7.50012423,10.5224922 L6.40901164,10.5224922 L6.40901164,3.26012815 C6.40901164,2.84400287 6.05467818,2.50666667 5.6175857,2.50666667 C5.18049322,2.50666667 4.82615975,2.84400287 4.82615975,3.26012815 L4.82615975,10.520483 Z M9.62585017,5.49885038 L9.62585017,12.7592052 C9.62585017,13.1753305 9.98011504,13.5126667 10.4171229,13.5126667 C10.8541308,13.5126667 11.2083956,13.1753305 11.2083956,12.7592052 L11.2083956,5.49885038 L12.299297,5.49885038 C12.5067738,5.49894843 12.6950437,5.38322935 12.7803836,5.20315308 C12.8657234,5.02307682 12.8322831,4.8120889 12.6949333,4.66401506 L10.8222545,2.64272905 C10.7221147,2.5346071 10.5780153,2.47266667 10.4266182,2.47266667 C10.275221,2.47266667 10.1311216,2.5346071 10.0309818,2.64272905 L8.15830303,4.66401506 C8.02164722,4.81213432 7.98862876,5.02268297 8.07387989,5.20235555 C8.15913102,5.38202814 8.34688556,5.49759637 8.55393939,5.49784575 L9.62585017,5.49784575 L9.62585017,5.49885038 Z" id="形状"></path>
        </g>
    </g>
</svg>