<?xml version="1.0" standalone="no"?><!DOCTYPE svg PUBLIC "-//W3C//DTD SVG 1.1//EN" "http://www.w3.org/Graphics/SVG/1.1/DTD/svg11.dtd"><svg class="icon" width="16px" height="16.00px" viewBox="0 0 1024 1024" version="1.1" xmlns="http://www.w3.org/2000/svg"><path d="M716.8 230.4c0-112.64-92.16-204.8-204.8-204.8s-204.8 92.16-204.8 204.8 92.16 204.8 204.8 204.8 204.8-92.16 204.8-204.8z m102.4 358.4c-112.64 0-204.8 92.16-204.8 204.8s92.16 204.8 204.8 204.8 204.8-92.16 204.8-204.8-92.16-204.8-204.8-204.8z m-614.4 0c-112.64 0-204.8 92.16-204.8 204.8s92.16 204.8 204.8 204.8 204.8-92.16 204.8-204.8-92.16-204.8-204.8-204.8z" fill="#467CFD" /><path d="M860.16 819.2H163.84L512 179.2 860.16 819.2z m-614.4-51.2h527.36L512 281.6 245.76 768z" fill="#467CFD" /></svg>