<?xml version="1.0" standalone="no"?><!DOCTYPE svg PUBLIC "-//W3C//DTD SVG 1.1//EN" "http://www.w3.org/Graphics/SVG/1.1/DTD/svg11.dtd"><svg class="icon" width="16px" height="16.00px" viewBox="0 0 1024 1024" version="1.1" xmlns="http://www.w3.org/2000/svg"><path d="M1020.879936 533.508026A467.052571 467.052571 0 0 0 969.197889 319.12324a1028.536535 1028.536535 0 0 0 32.540548-102.087994c38.282998-143.561241-50.405947-229.059936-186.310588-215.660886a749.070653 749.070653 0 0 0-234.802386 63.804996h-18.503448a461.310121 461.310121 0 0 0-451.101322 382.829975 724.824754 724.824754 0 0 1 231.612135-208.642336 1685.089944 1685.089944 0 0 0-234.802385 302.435681l-3.8283 5.742449A793.0961 793.0961 0 0 0 3.8283 829.563207c-21.055649 137.818791 46.577647 210.556487 191.414988 191.414988a758.641402 758.641402 0 0 0 165.892989-63.804996 452.377422 452.377422 0 0 0 200.985738 47.215697 460.034021 460.034021 0 0 0 432.597872-311.36838H746.518453a203.537937 203.537937 0 0 1-177.377889 104.640193 205.452087 205.452087 0 0 1-204.175987-197.795487h652.087059a505.973618 505.973618 0 0 0 3.8283-63.804996zM198.433538 983.333248c-77.842095 8.294649-177.377889-77.204045-63.804996-280.741983a468.328671 468.328671 0 0 0 191.414987 230.336036 409.628074 409.628074 0 0 1-127.609991 50.405947z m168.445189-526.391217a204.175987 204.175987 0 0 1 405.161724 0z m366.878727-356.031878c191.414988-92.517244 264.152683 5.74245 242.458985 106.554344 0 14.037099-13.399049 50.405947-22.969799 82.308444a459.395971 459.395971 0 0 0-219.489186-191.414987z m0 0" fill="#467CFD" /></svg>