<?xml version="1.0" encoding="UTF-8"?>
<svg width="16px" height="16px" viewBox="0 0 16 16" version="1.1" xmlns="http://www.w3.org/2000/svg" xmlns:xlink="http://www.w3.org/1999/xlink">
    <title>Home Page</title>
    <g id="页面-1" stroke="none" stroke-width="1" fill="none" fill-rule="evenodd">
        <g id="logo3-纯色-抠图-16" fill-rule="nonzero">
            <path d="M12.6081778,0 C14.4839111,0 16,1.55591111 16,3.432 L16,3.432 L16,12.6081778 C16,14.4839111 14.4839111,16 12.6081778,16 L12.6081778,16 L3.432,16 C1.55591111,16 0,14.4839111 0,12.6081778 L0,12.6081778 L0,3.432 C0,1.55591111 1.55591111,0 3.432,0 L3.432,0 Z M6.48412972,12.4366395 L4.32169856,12.4366395 L4.32169856,13.2710193 L4.31411411,13.3609777 C4.27914893,13.5662417 4.12630939,13.7351897 3.91864842,13.7871155 L3.91864842,13.7871155 L3.53219494,13.8836977 L3.50165567,13.8970452 C3.47418097,13.9150569 3.4567261,13.9460006 3.4567261,13.980334 C3.4567261,14.0164915 3.47635016,14.0498386 3.50794869,14.0673769 L3.50794869,14.0673769 L5.13106951,14.9688833 L5.2070179,15.003002 C5.25937076,15.021378 5.31472299,15.0309023 5.37042361,15.0309023 C5.48192397,15.0309023 5.59123486,14.9925559 5.67829975,14.9229432 L5.67829975,14.9229432 L6.29916076,14.426358 L6.36353872,14.3646913 C6.44098489,14.2758422 6.48412972,14.1620189 6.48412972,14.0416235 L6.48412972,14.0416235 L6.48412972,12.4366395 Z M12.538937,9.06139551 L11.7312419,9.33055027 L11.5710067,9.37458068 C11.4629473,9.39812121 11.3526452,9.40999957 11.2414783,9.40999957 C11.0747278,9.40999957 10.9099235,9.38327326 10.7516876,9.33055027 L10.7516876,9.33055027 L9.94401957,9.06139551 L9.94401957,9.7130419 L10.0397674,9.78103685 C10.2511553,9.95246947 10.3765058,10.2103161 10.3765058,10.4909424 C10.3765058,10.8109015 10.2135666,11.1012157 9.94593873,11.2676539 C9.99032263,12.7426004 10.7987205,14.1080474 12.0781499,14.8542222 L12.0781499,14.8542222 L12.3521029,15.0139856 L12.3822891,15.0265988 L12.3822891,15.0265988 L12.4147053,15.0309023 C12.4832003,15.0309023 12.538937,14.9751797 12.538937,14.906702 L12.538937,14.906702 L12.538937,9.06139551 Z M5.40291414,13.3013938 C5.76063431,13.3013938 6.05164349,13.5923566 6.05164349,13.9499595 C6.05164349,14.3075624 5.76063431,14.5985252 5.40291414,14.5985252 C5.04519396,14.5985252 4.75418479,14.3075624 4.75418479,13.9499595 C4.75418479,13.5923566 5.04519396,13.3013938 5.40291414,13.3013938 Z M5.40291414,13.7337709 C5.28348636,13.7337709 5.18667102,13.8305619 5.18667102,13.9499595 C5.18667102,14.0693572 5.28348636,14.1661481 5.40291414,14.1661481 C5.52234191,14.1661481 5.61915725,14.0693572 5.61915725,13.9499595 C5.61915725,13.8305619 5.52234191,13.7337709 5.40291414,13.7337709 Z M6.48412972,11.5718853 L4.32169856,11.5718853 L4.32169856,12.0042624 L6.48412972,12.0042624 L6.48412972,11.5718853 Z M11.6739645,9.84237671 C11.9124266,9.84237671 12.1064507,10.0363519 12.1064507,10.2747538 L12.1064507,10.2747538 L12.1064507,11.1395081 L12.0994698,11.2171249 C12.0627856,11.4186209 11.8859308,11.5718853 11.6739645,11.5718853 L11.6739645,11.5718853 L11.2414783,11.5718853 L11.1638419,11.5649061 C10.9622951,11.5282312 10.808992,11.351421 10.808992,11.1395081 L10.808992,11.1395081 L10.808992,10.2747538 L10.8159729,10.1971371 C10.8526571,9.99564106 11.029512,9.84237671 11.2414783,9.84237671 L11.2414783,9.84237671 Z M6.70037283,9.62618814 C6.57105945,9.62618814 6.44125952,9.63905136 6.31451402,9.66439947 L6.31451402,9.66439947 L3.56944282,10.2132752 L3.52428011,10.2308937 C3.48339496,10.2557799 3.4567261,10.3007843 3.4567261,10.3507441 C3.4567261,10.4280586 3.51962581,10.4909424 3.59695976,10.4909424 L3.59695976,10.4909424 L3.74897867,10.4909424 L3.84175326,10.4984502 C4.11359024,10.5429028 4.32169856,10.7793731 4.32169856,11.0635178 L4.32169856,11.0635178 L4.32169856,11.1395081 L6.48412972,11.1395081 L6.48412972,10.0585653 L6.70037283,10.0585653 L6.75779051,10.0508292 C6.84924646,10.025619 6.91661595,9.94171085 6.91661595,9.84237671 C6.91661595,9.72317574 6.81960388,9.62618814 6.70037283,9.62618814 Z M11.6739645,10.2747538 L11.2414783,10.2747538 L11.2414783,11.1395081 L11.6742348,11.1395081 L11.6739645,10.2747538 Z M5.62523909,2.49196539 C5.56363683,2.49196539 5.50565665,2.52479903 5.47392297,2.57760309 C4.72015353,3.83363164 4.32169856,5.27179907 4.32169856,6.73655769 L4.32169856,6.73655769 L4.32169856,9.62189139 L4.75418479,9.53541597 L4.75418479,6.73655769 L4.76176205,6.37846399 C4.81724707,5.0673787 5.1765549,3.78083434 5.81009993,2.62992072 C5.79736861,2.61013947 5.78512385,2.590115 5.77204114,2.57052291 C5.73925328,2.52134001 5.68438158,2.49196539 5.62523909,2.49196539 Z M6.06199613,3.078512 C5.48830314,4.20942142 5.18667102,5.46588236 5.18667102,6.73655769 L5.18667102,6.73655769 L5.18667102,9.44896756 L6.22966563,9.24042667 L6.3563199,9.21883145 L6.3563199,9.21883145 L6.48412972,9.20402592 L6.48412972,4.92176276 L6.47528731,4.64716932 C6.43999351,4.10037359 6.29950057,3.56929093 6.06199613,3.078512 Z M12.1064507,3.35671966 C12.1064507,3.83355057 11.7184295,4.22147394 11.2414783,4.22147394 C10.9116264,4.22147394 10.6244015,4.03584903 10.4785455,3.76369464 C10.3139305,3.88078778 10.1663716,4.01944572 10.0387881,4.17885776 C9.97767241,4.2552534 9.94401957,4.35118708 9.94401957,4.44898538 L9.94401957,4.44898538 L9.94401957,6.25402481 L10.0397674,6.32201975 C10.2511553,6.49345238 10.3765058,6.75129905 10.3765058,7.03192532 C10.3765058,7.35264106 10.2127827,7.64360385 9.94401957,7.80982584 L9.94401957,7.80982584 L9.94401957,8.60558893 L10.8884614,8.92030544 L11.0275738,8.95680672 C11.2156102,8.993308 11.4120022,8.98114091 11.5944681,8.92030544 L11.5944681,8.92030544 L12.538937,8.60558893 L12.538937,3.7890968 L12.5319561,3.71148006 C12.4952719,3.50998401 12.318417,3.35671966 12.1064507,3.35671966 Z M11.4577214,7.24811389 C11.8154416,7.24811389 12.1064507,7.53907668 12.1064507,7.8966796 C12.1064507,8.25428251 11.8154416,8.5452453 11.4577214,8.5452453 C11.1000012,8.5452453 10.808992,8.25428251 10.808992,7.8966796 C10.808992,7.53907668 11.1000012,7.24811389 11.4577214,7.24811389 Z M11.4577214,7.68049103 C11.3382936,7.68049103 11.2414783,7.77728195 11.2414783,7.8966796 C11.2414783,8.01607725 11.3382936,8.11286816 11.4577214,8.11286816 C11.5771492,8.11286816 11.6739645,8.01607725 11.6739645,7.8966796 C11.6739645,7.77728195 11.5771492,7.68049103 11.4577214,7.68049103 Z M11.2414783,4.65385107 L11.2414783,6.81573675 L10.808992,6.81573675 L10.808992,4.65385107 L11.2414783,4.65385107 Z M12.1064507,4.65385107 L12.1064507,6.81573675 L11.6739645,6.81573675 L11.6739645,4.65385107 L12.1064507,4.65385107 Z M11.6739645,2.49339764 C11.3697375,2.50372064 11.0763496,2.5760087 10.808992,2.70299246 L10.808992,2.70299246 L10.808992,3.35671966 L10.8159729,3.4343364 C10.8526571,3.63583245 11.029512,3.7890968 11.2414783,3.7890968 C11.4799404,3.7890968 11.6739645,3.59512161 11.6739645,3.35671966 L11.6739645,3.35671966 Z M10.3765058,2.9749847 C10.2534364,3.07429632 10.140044,3.18760615 10.0387881,3.31413051 C9.97767241,3.39049913 9.94401957,3.4864328 9.94401957,3.58423111 L9.94401957,3.58423111 L9.94401957,3.64500712 L10.0801306,3.52432485 C10.1735737,3.44706547 10.2724028,3.37627572 10.3765058,3.31242803 L10.3765058,3.31242803 Z M12.1064507,2.49196539 L12.1064507,2.92434253 L12.2225674,2.93213798 C12.3365081,2.94755408 12.4434318,2.9853077 12.538937,3.040679 L12.538937,3.040679 L12.538937,2.92434253 L12.5319561,2.84672579 C12.4952719,2.64522974 12.318417,2.49196539 12.1064507,2.49196539 L12.1064507,2.49196539 Z" id="形状结合" fill="#467CFD"></path>
            <g id="文字" transform="translate(0.909765, 8.009889)" fill="#B9BAE5">
                <path d="M0,1.56001617 L1.13742361,1.56001617 L1.13742361,1.27003856 L0.298613302,1.27003856 L0.298613302,0.909547263 L1.06692869,0.909547263 L1.06692869,0.636999999 L0.298613302,0.636999999 L0.298613302,0.309784826 L1.13742361,0.309784826 L1.13742361,0.0221840796 L0,0.0221840796 L0,1.56001617 Z M2.11247129,0.0221840796 L1.73702645,0.0221840796 L1.18574035,1.56001617 L1.50653183,1.56001617 L1.91524393,0.340684079 L1.93663003,0.340684079 L2.37385694,1.56001617 L2.71682659,1.56001617 L2.11247129,0.0221840796 Z M3.40831044,0.240063433 C3.60791403,0.240063433 3.74652763,0.351776119 3.74652763,0.527664179 L4.0427647,0.527664179 C4.0427647,0.183018657 3.79959684,0 3.40593421,0 L3.40831044,0.240063433 Z M2.81583631,0.413574626 C2.81583631,0.973722636 3.74652763,0.771689054 3.74652763,1.13376492 C3.74652763,1.25894652 3.61741896,1.34055224 3.43286485,1.34055224 C3.21979594,1.34055224 3.09464766,1.23042413 3.09464766,1.05295149 L2.79365813,1.05295149 C2.79365813,1.41740423 3.05029131,1.58220025 3.43920147,1.58220025 C3.79484437,1.58220025 4.0427647,1.40393532 4.0427647,1.13376492 C4.0427647,0.575993781 3.10336052,0.744751243 3.10336052,0.417536069 L2.81583631,0.413574626 Z M4.94098084,0.881024875 L4.46018966,0.0221840796 L4.11959624,0.0221840796 L4.64474377,0.945200248 L4.64474377,1.56001617 L4.94098084,1.56001617 L4.94098084,0.881024875 Z M5.03999055,0.732074626 L5.47959369,0.0221840796 L5.14375273,0.0221840796 L4.88236708,0.472996268 L5.03999055,0.732074626 Z M5.62454391,0.0221840796 L5.62454391,1.56001617 L6.25899817,1.56001617 C6.7271161,1.56001617 6.93068008,1.22646269 6.93068008,0.791496268 C6.93068008,0.354152985 6.7271161,0.0221840796 6.25899817,0.0221840796 L5.62454391,0.0221840796 Z M6.16236469,0.309784826 C6.42375033,0.309784826 6.61939353,0.411197761 6.61939353,0.791496268 C6.61939353,1.17337935 6.42612657,1.27003856 6.16474092,1.27003856 L5.92315721,1.27003856 L5.92315721,0.309784826 L6.16236469,0.309784826 Z M9.17542834,1.03948259 C9.57067513,1.03948259 9.73305106,0.797834576 9.73305106,0.516572139 C9.73305106,0.240063433 9.5928533,0.0221840796 9.17542834,0.0221840796 L7.15087768,0.0221840796 L7.15087768,0.294731343 L9.12473537,0.294731343 C9.33622012,0.294731343 9.42176452,0.365245025 9.42176452,0.525287313 C9.42176452,0.685329601 9.31800233,0.780404228 9.1271116,0.780404228 L8.56948889,0.780404228 L8.56948889,1.56001617 L8.86572595,1.56001617 L8.86572595,1.03948259 L9.17542834,1.03948259 Z M8.28830129,0.926977611 L8.28830129,0.655222636 L7.15087768,0.655222636 L7.15087768,0.926977611 L8.28830129,0.926977611 Z M7.15087768,1.56001617 L8.28830129,1.56001617 L8.28830129,1.27003856 L7.15087768,1.27003856 L7.15087768,1.56001617 Z M10.2146343,1.10128109 L10.2146343,0.0221840796 L9.91522894,0.0221840796 L9.91522894,1.10128109 L10.2146343,1.10128109 Z M9.91522894,1.56001617 L11.0336427,1.56001617 L11.0336427,1.27003856 L9.91522894,1.27003856 L9.91522894,1.56001617 Z M11.8946312,0 L11.8946312,0.281262438 C12.1845316,0.281262438 12.4039371,0.448435323 12.4039371,0.791496268 C12.4039371,1.13376492 12.1845316,1.30331468 11.8946312,1.30331468 C11.6134436,1.30331468 11.3956222,1.13376492 11.3956222,0.791496268 C11.3956222,0.791496268 11.0970089,0.791496268 11.0970089,0.791496268 C11.0970089,1.29856094 11.4510676,1.58220025 11.8946312,1.58220025 C12.3492838,1.58220025 12.7001742,1.32074502 12.7001742,0.791496268 C12.7001742,0.286016169 12.3492838,0 11.8946312,0 Z M13.5635389,0.881024875 L13.0827478,0.0221840796 L12.7421543,0.0221840796 L13.2673019,0.945200248 L13.2673019,1.56001617 L13.5635389,1.56001617 L13.5635389,0.881024875 Z M13.6625486,0.732074626 L14.1013597,0.0221840796 L13.7655187,0.0221840796 L13.5041331,0.472996268 L13.6625486,0.732074626 Z" id="形状"></path>
            </g>
        </g>
    </g>
</svg>