<?xml version="1.0" standalone="no"?><!DOCTYPE svg PUBLIC "-//W3C//DTD SVG 1.1//EN" "http://www.w3.org/Graphics/SVG/1.1/DTD/svg11.dtd"><svg class="icon" width="15px" height="15.00px" viewBox="0 0 1024 1024" version="1.1" xmlns="http://www.w3.org/2000/svg"><path d="M1024 124.928h-120.32V4.608H783.36v120.32h-120.32v120.32h120.32v120.32h120.32V245.248H1024V124.928zM0 64.512V307.2h541.696V64.512z m192 180.736a60.416 60.416 0 1 1 0-120.32 60.416 60.416 0 0 1 0 120.32zM0 421.888v240.64h1024v-240.64z m192 180.224a60.416 60.416 0 1 1 59.904-59.904 59.904 59.904 0 0 1-59.904 59.904zM0 778.752v240.64h1024v-240.64z m192 180.736a60.416 60.416 0 1 1 0-120.32 60.416 60.416 0 0 1 0 120.32z" fill="#467CFD" /></svg>