<?xml version="1.0" standalone="no"?><!DOCTYPE svg PUBLIC "-//W3C//DTD SVG 1.1//EN" "http://www.w3.org/Graphics/SVG/1.1/DTD/svg11.dtd"><svg class="icon" width="16px" height="16.00px" viewBox="0 0 1024 1024" version="1.1" xmlns="http://www.w3.org/2000/svg"><path d="M839.8 321.8H679.1V185.5c0-66.2-53.8-120-120-120h-96c-66.2 0-120 53.8-120 120v136.3H185c-66.2 0-120 53.8-120 120v32c0 42 21.7 79 54.5 100.5v265.2c0 66.2 53.8 120 120 120h544.9c66.2 0 120-53.8 120-120V575c33.3-21.3 55.5-58.7 55.5-101.1v-32c-0.1-66.2-53.9-120.1-120.1-120.1zM145 441.8c0-22.1 17.9-40 40-40h238.1V185.5c0-22.1 17.9-40 40-40h96c22.1 0 40 17.9 40 40v216.3h240.7c22.1 0 40 17.9 40 40v32c0 22.1-17.9 40-40 40H185c-22.1 0-40-17.9-40-40v-32z m679.3 397.7c0 22.1-17.9 40-40 40h-73V759.3c0-22.1-17.9-40-40-40s-40 17.9-40 40v120.2h-80.8V759.3c0-22.1-17.9-40-40-40s-40 17.9-40 40v120.2h-79.3V759.1c0-22.1-17.9-40-40-40s-40 17.9-40 40v120.4h-71.7c-22.1 0-40-17.9-40-40V593.8h624.9v245.7z" fill="#467CFD" /></svg>