<?xml version="1.0" encoding="UTF-8"?>
<svg width="16px" height="15px" viewBox="0 0 16 15" version="1.1" xmlns="http://www.w3.org/2000/svg" xmlns:xlink="http://www.w3.org/1999/xlink">
    <title>Export</title>
    <g id="一些图标" stroke="none" stroke-width="1" fill="none" fill-rule="evenodd">
        <g id="编组" fill="#467CFD" fill-rule="nonzero">
            <g id="编组-2" transform="translate(2.080000, 0.000000)">
                <path d="M11.768,6.04828571 L11.7714286,6.04828571 L6.16457143,0.108857143 C6.01942857,-0.0362857143 5.78171429,-0.0362857143 5.63657143,0.108857143 L0.0765714286,6.04485714 C0.0297142857,6.08142857 0,6.12714286 0,6.17857143 C0,6.30085714 0.16,6.398 0.361142857,6.398 C0.361142857,6.398 0.362285714,6.398 0.364571429,6.398 L0.364571429,6.398 L3.16685714,6.398 C3.37828571,6.518 3.64914286,6.74542857 3.74514286,7.15228571 L3.74514286,9.46771429 C3.74514286,9.88142857 4.08114286,10.2151429 4.49371429,10.2151429 L7.34628571,10.2151429 C7.75885714,10.2151429 8.09371429,9.88142857 8.09371429,9.46771429 L8.09371429,7.05514286 C8.16571429,6.89971429 8.33714286,6.58885714 8.62285714,6.398 L11.5897143,6.398 L11.5897143,6.38657143 C11.7371429,6.358 11.8422857,6.27685714 11.8422857,6.17857143 C11.8422857,6.12942857 11.8148571,6.08485714 11.768,6.04828571 Z" id="路径"></path>
                <path d="M3.74628571,10.9877143 L3.74628571,11.3077143 C3.74628571,11.7191429 4.08228571,12.0551429 4.49485714,12.0551429 L7.34857143,12.0551429 C7.76228571,12.0551429 8.09714286,11.7191429 8.09714286,11.3077143 L8.09714286,10.9877143 L3.74628571,10.9877143 Z" id="路径"></path>
            </g>
            <path d="M16,10.9877143 C15.9954286,10.774 15.7988571,10.6025714 15.5565714,10.6025714 C15.312,10.6025714 15.1142857,10.774 15.1131429,10.9877143 L15.0982857,10.9877143 L15.0982857,12.8265714 C15.0982857,13.342 14.6811429,13.7602857 14.1657143,13.7602857 L1.82285714,13.7602857 C1.30742857,13.7602857 0.889142857,13.342 0.889142857,12.8265714 L0.889142857,10.9877143 L0.886857143,10.9877143 C0.885714286,10.774 0.688,10.6025714 0.443428571,10.6025714 C0.201142857,10.6025714 0.00457142857,10.774 0,10.9877143 L0,10.9877143 L0,12.6162857 C0,13.6494286 0.833142857,14.486 1.86171429,14.486 L14.1382857,14.486 C15.1657143,14.486 16,13.6505714 16,12.6162857 L16,10.9877143 L16,10.9877143 Z" id="路径"></path>
        </g>
    </g>
</svg>