<?xml version="1.0" encoding="UTF-8"?>
<svg width="16px" height="16px" viewBox="0 0 16 16" version="1.1" xmlns="http://www.w3.org/2000/svg" xmlns:xlink="http://www.w3.org/1999/xlink">
    <title>my_share</title>
    <g id="一些图标" stroke="none" stroke-width="1" fill="none" fill-rule="evenodd">
        <g id="my_share" fill-rule="nonzero">
            <path d="M13.3359755,15.9999822 L2.6663236,15.9999822 C1.95881837,16.0025739 1.27966625,15.7220731 0.780216293,15.2209713 C0.277919321,14.7222351 -0.00314973702,14.0427507 2.66323338e-05,13.3349284 L2.66323338e-05,2.66564079 C-0.0027649248,1.95789402 0.278245094,1.27855234 0.780216293,0.77959788 C1.27953586,0.278232379 1.95872329,-0.00248883671 2.6663236,1.6628203e-05 L13.3359755,1.6628203e-05 C14.0435758,-0.00248883671 14.7227632,0.278232379 15.2220828,0.77959788 C15.7223512,1.27950703 16.0023628,1.95842454 15.9999797,2.66564079 L15.9999797,13.3349284 C16.0027442,14.0422194 15.7226745,14.7212779 15.2220828,15.2209713 C14.7226328,15.7220731 14.0434807,16.0025739 13.3359755,15.9999822 Z M6.35566379,9.21592496 L9.15967665,10.6241703 C9.14786361,10.701515 9.1423206,10.7796878 9.14310177,10.8579254 C9.14310177,11.8048642 9.91077359,12.5725098 10.8577448,12.5725098 C11.8040635,12.5709366 12.5708145,11.8042118 12.5723878,10.8579254 C12.5708145,9.91163891 11.8040635,9.1449141 10.8577448,9.14334089 C10.3177288,9.14198326 9.80895383,9.39636204 9.48603037,9.82917467 L6.79232622,8.47465295 C6.83708983,8.32188847 6.8596115,8.16347215 6.85919728,8.00428528 C6.85809913,7.8298576 6.83133051,7.6565415 6.77975216,7.48990994 L9.4660262,6.14281808 C9.78791003,6.592549 10.306966,6.85940998 10.860031,6.85951439 C11.3147826,6.85951439 11.7509087,6.67887119 12.0724667,6.35732422 C12.3940246,6.03577726 12.574674,5.59966599 12.574674,5.14492992 C12.5731007,4.19864348 11.8063497,3.43191867 10.860031,3.43034546 C9.91305979,3.43034546 9.14538797,4.19799107 9.14538797,5.14492992 C9.14507964,5.20913774 9.14908952,5.27329362 9.15739046,5.33696338 L6.32537177,6.76006849 C6.0070556,6.45603486 5.58360141,6.28669992 5.14341118,6.28741471 C4.19644,6.28741471 3.42876818,7.05506032 3.42876818,8.00199916 C3.42876818,8.94893801 4.19644,9.71658362 5.14341118,9.71658362 C5.59958857,9.7182093 6.03726106,9.53634972 6.35794999,9.21192426 L6.35566379,9.21592496 Z" id="形状" fill="#467CFD"></path>
            <g id="ok" transform="translate(11.200000, 11.200000)">
                <path d="M0,2.4 C-5.59752001e-05,3.25741876 0.457369199,4.04973031 1.19995477,4.47845585 C1.94254034,4.90718138 2.85745966,4.90718138 3.60004523,4.47845585 C4.3426308,4.04973031 4.80005598,3.25741876 4.8,2.4 C4.80005598,1.54258124 4.3426308,0.75026969 3.60004523,0.321544153 C2.85745966,-0.107181384 1.94254034,-0.107181384 1.19995477,0.321544153 C0.457369199,0.75026969 -5.59751972e-05,1.54258124 0,2.4 L0,2.4 Z" id="路径" fill="#08C82F"></path>
                <path d="M3.72607073,1.43073474 C3.82829382,1.29898106 4.00353338,1.28434176 4.13496307,1.37217755 C4.25178946,1.46001334 4.28099605,1.63568492 4.20797956,1.76743861 L4.19337626,1.78207791 L2.49939372,4.0072513 C2.41177394,4.12436569 2.25113766,4.15364429 2.11970798,4.08044779 L2.10510468,4.0658085 L0.717791394,3.11425409 C0.586361715,3.0264183 0.557155124,2.83610742 0.644774907,2.70435372 C0.73239469,2.57260003 0.893030971,2.54332144 1.02446064,2.61651793 L1.03906395,2.63115723 L2.19272446,3.42167936 L3.72607073,1.43073474 L3.72607073,1.43073474 Z" id="路径" fill="#FFFFFF"></path>
            </g>
        </g>
    </g>
</svg>