<?xml version="1.0" standalone="no"?><!DOCTYPE svg PUBLIC "-//W3C//DTD SVG 1.1//EN"
        "http://www.w3.org/Graphics/SVG/1.1/DTD/svg11.dtd">
<svg class="icon" width="16px" height="16.00px" viewBox="0 0 1024 1024" version="1.1"
     xmlns="http://www.w3.org/2000/svg">
    <path d="M512 0C229.248 0 0 229.248 0 512s229.248 512 512 512 512-229.248 512-512S794.752 0 512 0z m320 576h-73.088a255.36 255.36 0 0 1-27.136 65.344l51.776 51.712a64.128 64.128 0 0 1 0 90.56 64.128 64.128 0 0 1-90.56 0l-51.712-51.776c-20.224 11.84-42.048 21.12-65.28 27.072V832c0 35.392-28.608 64-64 64s-64-28.608-64-64v-73.088a255.36 255.36 0 0 1-65.344-27.136l-51.712 51.776a64 64 0 1 1-90.496-90.56l51.712-51.712A253.802667 253.802667 0 0 1 265.088 576H192c-35.392 0-64-28.608-64-64s28.608-64 64-64h73.088a255.189333 255.189333 0 0 1 27.072-65.344l-51.648-51.648a63.936 63.936 0 0 1 0-90.496 63.936 63.936 0 0 1 90.496 0l51.712 51.712A251.733333 251.733333 0 0 1 448 265.088V192c0-35.392 28.608-64 64-64s64 28.608 64 64v73.088a255.36 255.36 0 0 1 65.344 27.136l51.712-51.712a64 64 0 1 1 90.56 90.496l-51.776 51.712c11.84 20.224 21.12 42.048 27.072 65.28H832c35.392 0 64 28.608 64 64s-28.608 64-64 64z m-320-192c-70.656 0-128 57.344-128 128s57.344 128 128 128 128-57.344 128-128-57.344-128-128-128z"
          fill="#467CFD"/>
</svg>