<?xml version="1.0" standalone="no"?><!DOCTYPE svg PUBLIC "-//W3C//DTD SVG 1.1//EN" "http://www.w3.org/Graphics/SVG/1.1/DTD/svg11.dtd"><svg class="icon" width="16px" height="16.00px" viewBox="0 0 1024 1024" version="1.1" xmlns="http://www.w3.org/2000/svg"><path d="M853.429943 1023.817143H170.715246a169.50839 169.50839 0 0 1-120.685585-49.846804 168.99639 168.99639 0 0 1-49.919947-120.685585V170.570057a169.215819 169.215819 0 0 1 49.919947-120.685585A169.471818 169.471818 0 0 1 170.715246 0.001097h682.714697a169.471818 169.471818 0 0 1 120.685585 49.883375 169.800961 169.800961 0 0 1 49.773661 120.685585v682.714697a169.581533 169.581533 0 0 1-49.773661 120.685585 169.50839 169.50839 0 0 1-120.685585 49.846804z m-446.646379-434.102392l179.419236 90.111903a92.9279 92.9279 0 0 0-1.06057 14.957699 109.714168 109.714168 0 0 0 109.714168 109.714168 109.897025 109.897025 0 0 0 109.714169-109.714168 109.897025 109.897025 0 0 0-109.714169-109.714168 109.165597 109.165597 0 0 0-87.771334 43.885667l-172.360958-86.674193a106.057029 106.057029 0 0 0 4.278852-30.098253 113.737021 113.737021 0 0 0-5.083423-32.914251l171.88553-86.198765a109.714168 109.714168 0 0 0 89.197619 45.860523 109.714168 109.714168 0 0 0 109.714168-109.714169 109.897025 109.897025 0 0 0-109.714168-109.714168 109.714168 109.714168 0 0 0-109.714168 109.714168 91.647902 91.647902 0 0 0 0.767999 12.287987l-181.211234 91.06276a109.23874 109.23874 0 0 0-75.629634-30.244539 109.714168 109.714168 0 0 0-109.714168 109.714168 109.714168 109.714168 0 0 0 109.714168 109.714168 108.726741 108.726741 0 0 0 77.714203-32.292537z" fill="#467CFD" /></svg>