<?xml version="1.0" standalone="no"?><!DOCTYPE svg PUBLIC "-//W3C//DTD SVG 1.1//EN" "http://www.w3.org/Graphics/SVG/1.1/DTD/svg11.dtd"><svg class="icon" width="16px" height="16.00px" viewBox="0 0 1024 1024" version="1.1" xmlns="http://www.w3.org/2000/svg"><path d="M717.3 179.9h-118v-59c-0.1-32.5-26.5-58.9-59-59H422.4c-32.5 0.1-58.9 26.4-59 59v59H245.5v134.3h471.8V179.9z m-176.9 0h-118V121l0.1-0.1h117.7s0.1 0 0.1 0.1l0.1 58.9z"  /><path d="M717.3 179.9h-118v-59c-0.1-32.5-26.5-58.9-59-59H422.4c-32.5 0.1-58.9 26.4-59 59v59H245.5v134.3h471.8V179.9z m-176.9 0h-118V121l0.1-0.1h117.7s0.1 0 0.1 0.1l0.1 58.9z" fill="#467CFD" /><path d="M399.3 469.4s0-49.8 48.5-49.8h339.7l47.9 47.9v-58.7h-0.3V209.4c0-16.3-13.2-29.4-29.5-29.5h-59.5V228h-0.1v113.7H215.8V179.9H157c-16.3 0-29.4 13.2-29.5 29.5v687.2c0 16.3 13.2 29.4 29.5 29.5h242.3V469.4z" fill="#467CFD" /><path d="M770.9 459.7h-293c-41.9 0-41.9 42.9-41.9 42.9v417.5c0 41.9 41.9 41.9 41.9 41.9h376.7c41.9 0 41.9-41.9 41.9-41.9V585.3L770.9 459.7z m0 125.6v-83.7l83.7 83.7h-83.7z" fill="#467CFD" /><path d="M519.7 802.1h293V844h-293v-41.9z m0-83.7h293v41.9h-293v-41.9z m0-83.7h293v41.9h-293v-41.9z m251.2-133.1l83.7 83.7h-83.7v-83.7z" fill="#FFFFFF" /></svg>