<?xml version="1.0" encoding="UTF-8"?>
<svg width="40px" height="40px" viewBox="0 0 40 40" version="1.1" xmlns="http://www.w3.org/2000/svg" xmlns:xlink="http://www.w3.org/1999/xlink">
    <title>Easy Deploy</title>
    <g id="页面-1" stroke="none" stroke-width="1" fill="none" fill-rule="evenodd">
        <g id="logo3-换色-40" fill-rule="nonzero">
            <path d="M31.5204444,0 L8.58,0 C3.88977778,0 0,3.88977778 0,8.58 L0,31.5204444 C0,36.2097778 3.88977778,40 8.58,40 L31.5204444,40 C36.2097778,40 40,36.2097778 40,31.5204444 L40,8.58 C40,3.88977778 36.2097778,0 31.5204444,0 Z" id="路径" fill="#282942"></path>
            <g id="编组" transform="translate(8.641815, 6.229913)" fill="#D863BB">
                <rect id="矩形" x="2.16243116" y="22.6997997" width="5.40607789" height="1.08094284"></rect>
                <path d="M8.10911684,17.8355569 C7.78583338,17.8355569 7.46133356,17.8677149 7.14446982,17.9310852 L0.28179181,19.3032746 C0.118528258,19.3359055 0,19.4804141 0,19.6469468 C0,19.8402329 0.157249291,19.9974426 0.350584151,19.9974426 L0.730631427,19.9974426 C1.52012153,19.9974426 2.16243116,20.6395902 2.16243116,21.4288811 L2.16243116,21.6188568 L7.56850905,21.6188568 L7.56850905,18.9164997 L8.10911684,18.9164997 C8.40719446,18.9164997 8.64972463,18.6740307 8.64972463,18.3760283 C8.64972463,18.0780259 8.40719446,17.8355569 8.10911684,17.8355569 Z" id="路径"></path>
                <path d="M3.24364674,10.6114808 C3.24364674,7.02612847 4.1555845,3.48374366 5.88343457,0.344888325 C5.85160629,0.29543519 5.82099437,0.245374025 5.7882876,0.196393802 C5.70631794,0.0734365543 5.56913872,0 5.42128249,0 C5.26727684,0 5.12232638,0.082084097 5.04299219,0.214094242 C3.15856859,3.35416564 2.16243116,6.9495842 2.16243116,10.6114808 L2.16243116,17.824815 L3.24364674,17.6086264 L3.24364674,10.6114808 Z" id="路径"></path>
                <ellipse id="椭圆形" cx="4.8654701" cy="28.6449853" rx="1" ry="1"></ellipse>
                <path d="M2.16243116,26.9476348 C2.16243116,27.5590431 1.74812286,28.0895158 1.15480581,28.2378752 L0.188672118,28.4793308 C0.0775772178,28.5070975 0,28.6064767 0,28.7209215 C0,28.8113154 0.0490601569,28.8946831 0.12805647,28.9385288 L4.18585854,31.1922947 C4.36844882,31.2937682 4.57536645,31.3473424 4.78424378,31.3473424 C5.06299468,31.3473424 5.33627191,31.2514763 5.55393412,31.0774445 L7.10608666,29.8359816 C7.39997457,29.6009441 7.56850905,29.2503808 7.56850905,28.8741452 L7.56850905,24.8616854 L2.16243116,24.8616854 L2.16243116,26.9476348 Z M4.8654701,27.023571 C5.75977054,27.023571 6.48729347,27.750978 6.48729347,28.6449853 C6.48729347,29.5389926 5.75977054,30.2663996 4.8654701,30.2663996 C3.97116967,30.2663996 3.24364674,29.5389926 3.24364674,28.6449853 C3.24364674,27.750978 3.97116967,27.023571 4.8654701,27.023571 Z" id="形状"></path>
                <path d="M4.32486232,17.3925054 L6.93234884,16.8711532 C7.14217223,16.8291991 7.35483382,16.7994732 7.56850905,16.7801513 L7.56850905,6.07449341 C7.56850905,4.46638826 7.20589638,2.89780508 6.51317507,1.46636652 C5.07894261,4.29364008 4.32486232,7.43479242 4.32486232,10.6114808 L4.32486232,17.3925054 Z" id="路径"></path>
                <path d="M19.4618804,19.4569711 L19.4618804,21.6188568 L20.543096,21.6188568 C20.543569,21.6188568 20.5437718,21.6188568 20.5437718,21.6188568 L20.543096,19.4569711 L19.4618804,19.4569711 Z" id="路径"></path>
                <path d="M17.2994493,1.20754827 C16.9917759,1.45582733 16.7082946,1.73910191 16.455155,2.05541281 C16.3023658,2.24633434 16.2182337,2.48616854 16.2182337,2.73066429 L16.2182337,2.88260432 C16.5483423,2.56906334 16.9090629,2.29058544 17.2994493,2.0511566 L17.2994493,1.20754827 Z" id="路径"></path>
                <path d="M21.6243116,2.16188568 C21.6243116,3.35396296 20.6542585,4.32377137 19.4618804,4.32377137 C18.6372508,4.32377137 17.9191885,3.85970909 17.5545486,3.17932313 C17.1430109,3.47205597 16.7741136,3.81870082 16.455155,4.21723094 C16.3023658,4.40822002 16.2182337,4.64805422 16.2182337,4.89254998 L16.2182337,9.40514854 C16.8901416,9.82070351 17.2994493,10.5481105 17.2994493,11.3498998 C17.2994493,12.1516892 16.8901416,12.8790962 16.2182337,13.2946511 L16.2182337,15.2840589 L18.5793382,16.0708501 C19.1495443,16.260961 19.774149,16.260961 20.3443551,16.0708501 L22.7055272,15.2840589 L22.7055272,3.24282852 C22.7055272,2.64682366 22.2204668,2.16188568 21.6243116,2.16188568 Z M18.3806648,5.40471421 L19.4618804,5.40471421 L19.4618804,10.8094284 L18.3806648,10.8094284 L18.3806648,5.40471421 Z M20.0024882,15.1331998 C19.1081878,15.1331998 18.3806648,14.4057928 18.3806648,13.5117855 C18.3806648,12.6177782 19.1081878,11.8903713 20.0024882,11.8903713 C20.8967886,11.8903713 21.6243116,12.6177782 21.6243116,13.5117855 C21.6243116,14.4057928 20.8967886,15.1331998 20.0024882,15.1331998 Z M21.6243116,10.8094284 L20.543096,10.8094284 L20.543096,5.40471421 L21.6243116,5.40471421 L21.6243116,10.8094284 Z" id="形状"></path>
                <path d="M21.6243116,0 L21.6243116,1.08094284 C22.0180768,1.08094284 22.3871767,1.18721303 22.7055272,1.37178402 L22.7055272,1.08094284 C22.7055272,0.484937982 22.2204668,0 21.6243116,0 Z" id="路径"></path>
                <path d="M19.4618804,17.2950855 C19.0450042,17.2950855 18.6329935,17.2282697 18.2374038,17.0964622 L16.2182337,16.4235753 L16.2182337,18.0526913 C16.8901416,18.4682462 17.2994493,19.1956532 17.2994493,19.9974426 C17.2994493,20.7973403 16.8921013,21.5231258 16.2230316,21.9392213 C16.3339913,25.6265875 18.354986,29.040205 21.5535595,30.9056421 L22.238442,31.3050505 C22.2859479,31.3327497 22.3400087,31.3473424 22.394948,31.3473424 C22.5661855,31.3473424 22.7055272,31.2080359 22.7055272,31.0368416 L22.7055272,16.4235753 L20.6862895,17.0964622 C20.2907673,17.2282697 19.8787566,17.2950855 19.4618804,17.2950855 Z M21.6243116,19.4569711 L21.6243116,21.6188568 C21.6243116,22.2148617 21.1392512,22.6997997 20.543096,22.6997997 L19.4618804,22.6997997 C18.8657252,22.6997997 18.3806648,22.2148617 18.3806648,21.6188568 L18.3806648,19.4569711 C18.3806648,18.8609663 18.8657252,18.3760283 19.4618804,18.3760283 L20.543096,18.3760283 C21.1392512,18.3760283 21.6243116,18.8609663 21.6243116,19.4569711 Z" id="形状"></path>
                <path d="M19.4618804,3.24282852 C20.0580357,3.24282852 20.543096,2.75789054 20.543096,2.16188568 L20.543096,0.00358062316 C19.7825284,0.0293881335 19.0490588,0.210108265 18.3806648,0.527567665 L18.3806648,2.16188568 C18.3806648,2.75789054 18.8657252,3.24282852 19.4618804,3.24282852 Z" id="路径"></path>
                <ellipse id="椭圆形" cx="20.0024882" cy="13.5117855" rx="1" ry="1"></ellipse>
            </g>
            <g id="文字" transform="translate(2.274413, 20.024722)" fill="#6A6577">
                <path d="M0,3.90004042 L2.84355903,3.90004042 L2.84355903,3.17509639 L0.746533254,3.17509639 L0.746533254,2.27386816 L2.66732173,2.27386816 L2.66732173,1.5925 L0.746533254,1.5925 L0.746533254,0.774462064 L2.84355903,0.774462064 L2.84355903,0.055460199 L0,0.055460199 L0,3.90004042 Z M5.28117822,0.055460199 L4.34256612,0.055460199 L2.96435088,3.90004042 L3.76632957,3.90004042 L4.78810984,0.851710198 L4.84157508,0.851710198 L5.93464234,3.90004042 L6.79206648,3.90004042 L5.28117822,0.055460199 Z M8.52077611,0.600158582 C9.01978507,0.600158582 9.36631907,0.879440298 9.36631907,1.31916045 L10.1069117,1.31916045 C10.1069117,0.457546641 9.49899209,0 8.51483552,0 L8.52077611,0.600158582 Z M7.03959076,1.03393657 C7.03959076,2.43430659 9.36631907,1.92922263 9.36631907,2.83441231 C9.36631907,3.14736629 9.0435474,3.35138059 8.58216213,3.35138059 C8.04948986,3.35138059 7.73661916,3.07606032 7.73661916,2.63237873 L6.98414532,2.63237873 C6.98414532,3.54351057 7.62572828,3.95550062 8.59800368,3.95550062 C9.48711093,3.95550062 10.1069117,3.50983831 10.1069117,2.83441231 C10.1069117,1.43998445 7.7584013,1.86187811 7.7584013,1.04384017 L7.03959076,1.03393657 Z M12.3524521,2.20256219 L11.1504741,0.055460199 L10.2989906,0.055460199 L11.6118594,2.36300062 L11.6118594,3.90004042 L12.3524521,3.90004042 L12.3524521,2.20256219 Z M12.5999764,1.83018657 L13.6989842,0.055460199 L12.8593818,0.055460199 L12.2059177,1.18249067 L12.5999764,1.83018657 Z M14.0613598,0.055460199 L14.0613598,3.90004042 L15.6474954,3.90004042 C16.8177903,3.90004042 17.3267002,3.06615671 17.3267002,1.97874067 C17.3267002,0.885382462 16.8177903,0.055460199 15.6474954,0.055460199 L14.0613598,0.055460199 Z M15.4059117,0.774462064 C16.0593758,0.774462064 16.5484838,1.0279944 16.5484838,1.97874067 C16.5484838,2.93344838 16.0653164,3.17509639 15.4118523,3.17509639 L14.807893,3.17509639 L14.807893,0.774462064 L15.4059117,0.774462064 Z M22.9385709,2.59870647 C23.9266878,2.59870647 24.3326277,1.99458644 24.3326277,1.29143035 C24.3326277,0.600158582 23.9821333,0.055460199 22.9385709,0.055460199 L17.8771942,0.055460199 L17.8771942,0.736828357 L22.8118384,0.736828357 C23.3405503,0.736828357 23.5544113,0.913112561 23.5544113,1.31321828 C23.5544113,1.713324 23.2950058,1.95101057 22.817779,1.95101057 L21.4237222,1.95101057 L21.4237222,3.90004042 L22.1643149,3.90004042 L22.1643149,2.59870647 L22.9385709,2.59870647 Z M20.7207532,2.31744403 L20.7207532,1.63805659 L17.8771942,1.63805659 L17.8771942,2.31744403 L20.7207532,2.31744403 Z M17.8771942,3.90004042 L20.7207532,3.90004042 L20.7207532,3.17509639 L17.8771942,3.17509639 L17.8771942,3.90004042 Z M25.5365858,2.75320273 L25.5365858,0.055460199 L24.7880723,0.055460199 L24.7880723,2.75320273 L25.5365858,2.75320273 Z M24.7880723,3.90004042 L27.5841067,3.90004042 L27.5841067,3.17509639 L24.7880723,3.17509639 L24.7880723,3.90004042 Z M29.7365779,0 L29.7365779,0.703156094 C30.461329,0.703156094 31.0098429,1.12108831 31.0098429,1.97874067 C31.0098429,2.83441231 30.461329,3.25828669 29.7365779,3.25828669 C29.0336089,3.25828669 28.4890555,2.83441231 28.4890555,1.97874067 C28.4890555,1.97874067 27.7425222,1.97874067 27.7425222,1.97874067 C27.7425222,3.24640236 28.6276691,3.95550062 29.7365779,3.95550062 C30.8732094,3.95550062 31.7504355,3.30186256 31.7504355,1.97874067 C31.7504355,0.715040422 30.8732094,0 29.7365779,0 Z M33.9088473,2.20256219 L32.7068694,0.055460199 L31.8553858,0.055460199 L33.1682547,2.36300062 L33.1682547,3.90004042 L33.9088473,3.90004042 L33.9088473,2.20256219 Z M34.1563716,1.83018657 L35.2533993,0.055460199 L34.4137969,0.055460199 L33.7603328,1.18249067 L34.1563716,1.83018657 Z" id="形状"></path>
            </g>
        </g>
    </g>
</svg>