<?xml version="1.0" standalone="no"?><!DOCTYPE svg PUBLIC "-//W3C//DTD SVG 1.1//EN"
        "http://www.w3.org/Graphics/SVG/1.1/DTD/svg11.dtd">
<svg class="icons" width="40px" height="40.00px" viewBox="0 0 1024 1024" version="1.1"
     xmlns="http://www.w3.org/2000/svg">
    <path d="M560.288 76.96l303.424 175.6A96.848 96.848 0 0 1 912 336.4v351.2a96.848 96.848 0 0 1-48.288 83.84L560.288 947.024a96.384 96.384 0 0 1-96.576 0L160.288 771.44A96.848 96.848 0 0 1 112 687.6v-351.2a96.848 96.848 0 0 1 48.288-83.84L463.712 76.976a96.384 96.384 0 0 1 96.576 0zM493.6 128.88L190.176 304.448a36.912 36.912 0 0 0-18.4 31.952v351.2c0 13.184 7.008 25.36 18.4 31.952L493.6 895.136a36.736 36.736 0 0 0 36.8 0l303.424-175.584a36.912 36.912 0 0 0 18.4-31.952v-351.2c0-13.184-7.008-25.36-18.4-31.952L530.4 128.864a36.736 36.736 0 0 0-36.8 0z"
          fill="#17191C"/>
    <path d="M661.648 390.208a29.856 29.856 0 0 1 40.832 10.912c8.272 14.32 3.408 32.64-10.88 40.944l-149.712 86.896v176.208A29.92 29.92 0 0 1 512 735.136a29.92 29.92 0 0 1-29.888-29.968V529.28l-149.712-86.896a30 30 0 0 1-10.88-40.944 29.84 29.84 0 0 1 40.832-10.912l149.392 86.72 149.904-87.024z"
          fill="#1062FE"/>
</svg>