<?xml version="1.0" standalone="no"?><!DOCTYPE svg PUBLIC "-//W3C//DTD SVG 1.1//EN"
        "http://www.w3.org/Graphics/SVG/1.1/DTD/svg11.dtd">
<svg class="icons" width="13px" height="13.00px" viewBox="0 0 1024 1024" version="1.1"
     xmlns="http://www.w3.org/2000/svg">
    <path d="M965.1712 223.03232c-6.1184-47.68256-24.01792-86.77376-53.22752-115.98336-29.19936-29.20448-68.19328-47.09376-115.968-53.21728-43.66848-5.64736-92.672-0.9472-145.53088 13.77792-107.14112 29.91104-217.34912 97.49504-310.25664 190.27456a907.82208 907.82208 0 0 0-28.2624 29.55264c-87.01952-0.70144-166.02624 30.14144-223.47776 87.71584A292.5056 292.5056 0 0 0 28.50304 462.0544a29.4912 29.4912 0 0 0 26.84928 41.55392 30.68416 30.68416 0 0 0 10.71616-2.00192c38.02624-14.96064 82.41152-18.24768 129.63328-9.89184-10.83392 57.09824-1.536 112.2048 27.904 165.888a29.44512 29.44512 0 1 0 51.5328-28.25216c-23.31648-42.50624-42.86976-103.60832 0.93696-191.57504 0.128-0.2304 0.24064-0.34816 0.3584-0.5888 0.34304-0.768 0.73728-1.52064 1.1776-2.24256l1.7664-3.52256 2.10432-3.8912c0.11264-0.11264 0.11264-0.2304 0.2304-0.47104 15.77472-28.96384 37.56544-59.21792 65.00864-90.44992l0.11264-0.11264a782.848 782.848 0 0 1 34.84672-36.98176c62.52544-62.52032 135.40864-113.5872 207.9488-146.944l276.59264 276.59776c-33.32096 72.56576-84.41856 145.39776-146.92864 207.92832-57.70752 57.7024-112.45056 96.66048-163.2 116.33152-0.10752 0.11776-0.35328 0.11776-0.47104 0.23552-1.65888 0.58368-3.30752 1.29536-4.9408 1.8944l-1.05984 0.33792c-1.77152 0.5888-3.42016 1.1776-5.18656 1.77152-0.47616 0.10752-0.93696 0.34304-1.40288 0.48128a221.16864 221.16864 0 0 1-21.66272 5.87776c-50.74432 11.06944-98.31424 1.77152-145.13664-28.49792a29.50144 29.50144 0 0 0-31.91808 49.6128c43.8016 28.26752 89.60512 42.38336 136.832 42.38336a246.36416 246.36416 0 0 0 46.03904-4.52096c8.4224 47.32416 5.0688 91.71968-9.76896 129.74592a29.45024 29.45024 0 0 0 39.43936 37.56032 292.224 292.224 0 0 0 86.90176-59.94496c57.57952-57.56928 88.42752-136.46336 87.72096-223.47264a1059.86048 1059.86048 0 0 0 29.54752-28.25728c92.90752-92.90752 160.49152-202.9824 190.27456-310.25664 14.80704-52.68992 19.4048-101.54496 13.87008-145.34656zM212.90496 435.08736a344.77056 344.77056 0 0 0-66.64704-6.7072 275.36384 275.36384 0 0 0-28.02176 1.30048 203.3408 203.3408 0 0 1 11.89888-12.83072c34.85184-34.85184 79.92832-57.58464 130.57536-66.41664-20.64896 28.84096-36.42368 56.86784-47.80544 84.65408z m389.25312 453.77024a201.40032 201.40032 0 0 1-12.83072 11.89888c2.82112-30.2592 0.94208-62.17216-5.41696-94.90944 27.78624-11.29984 55.936-27.19744 84.64896-47.67744-8.69376 50.74944-31.43168 95.8464-66.40128 130.688z m292.60288-536.07424c-1.536 5.5296-3.17952 11.06944-4.94592 16.60416L649.728 129.30048a496.96256 496.96256 0 0 1 16.59904-4.9408c89.25696-24.84224 163.6608-16.00512 204.04224 24.38144 40.38144 40.38144 49.35168 114.76992 24.39168 204.04224z"
          fill="#ffffff"/>
    <path d="M418.36544 607.40096a29.45024 29.45024 0 0 0-41.6768 0l-188.74368 188.73856a29.4912 29.4912 0 0 0-0.00512 41.69216 29.48608 29.48608 0 0 0 41.68704 0l188.73856-188.73856a29.65504 29.65504 0 0 0 0-41.69216z"
          fill="#ffffff"/>
</svg>