<?xml version="1.0" standalone="no"?><!DOCTYPE svg PUBLIC "-//W3C//DTD SVG 1.1//EN" "http://www.w3.org/Graphics/SVG/1.1/DTD/svg11.dtd"><svg class="icon" width="16px" height="16.00px" viewBox="0 0 1024 1024" version="1.1" xmlns="http://www.w3.org/2000/svg"><path d="M912.576 614.4l-298.026667 298.048a85.333333 85.333333 0 0 1-120.682666 0L110.933333 518.272a60.629333 60.629333 0 0 1-25.898666-49.621333L85.333333 149.333333a64.64 64.64 0 0 1 63.082667-64.213333L490.496 85.333333a62.848 62.848 0 0 1 50.752 15.253334c-0.533333-0.533333 371.328 393.237333 371.328 393.237333a85.333333 85.333333 0 0 1 0 120.576zM362.666667 266.666667a74.666667 74.666667 0 1 0 74.666666 74.666666 74.666667 74.666667 0 0 0-74.666666-74.666666z m370.432 184.234666a32 32 0 0 0-45.269334 0L461.568 677.184a32 32 0 0 0 45.248 45.248l226.282667-226.282667a32 32 0 0 0 0-45.248z" fill="#aeb9c0" /></svg>