<?xml version="1.0" standalone="no"?><!DOCTYPE svg PUBLIC "-//W3C//DTD SVG 1.1//EN"
        "http://www.w3.org/Graphics/SVG/1.1/DTD/svg11.dtd">
<svg class="icon" width="16px" height="16.00px" viewBox="0 0 1024 1024" version="1.1"
     xmlns="http://www.w3.org/2000/svg">
    <path d="M216.795429 69.778286h17.993142l4.022858 0.512c41.764571 2.706286 82.651429 14.116571 121.417142 29.257143 53.394286 20.918857 103.789714 49.005714 151.405715 80.749714 1.170286 1.024 2.486857 0 3.584-0.585143 47.981714-31.890286 98.742857-59.977143 152.356571-80.896 41.106286-15.945143 84.406857-27.428571 128.731429-28.891429h17.993143c5.632 0.877714 11.337143 0.950857 16.896 1.755429 16.018286 2.121143 31.670857 6.436571 46.372571 13.165714 22.674286 10.386286 42.130286 27.355429 55.003429 48.566857 15.652571 25.088 22.016 54.857143 22.528 84.114286a334.994286 334.994286 0 0 1-14.994286 99.401143 665.965714 665.965714 0 0 1-59.392 135.68c-11.337143 20.260571-23.917714 39.862857-36.571429 59.392 4.827429 8.265143 10.532571 16.018286 15.433143 24.137143 20.699429 33.060571 39.424 67.364571 55.222857 102.985143 15.36 34.669714 28.013714 70.802286 35.035429 108.178285 6.363429 34.596571 8.192 70.802286-0.950857 105.106286a133.266286 133.266286 0 0 1-41.252572 67.364572c-23.332571 20.260571-53.833143 30.646857-84.260571 33.353142-36.790857 3.291429-73.874286-2.633143-109.348572-12.434285a584.630857 584.630857 0 0 1-101.156571-39.716572c-34.157714-16.822857-67.072-36.278857-98.889143-57.344-0.877714-0.804571-1.974857-0.365714-2.779428 0.292572-28.891429 19.309714-58.806857 37.083429-89.673143 52.809143-41.837714 21.211429-85.577143 39.058286-131.291429 49.371428-32.036571 7.094857-65.316571 10.386286-97.938286 5.851429-28.525714-4.169143-56.466286-15.579429-77.677714-35.474286a135.241143 135.241143 0 0 1-39.424-71.314286c-7.606857-34.450286-4.827429-70.217143 2.121143-104.667428 7.168-34.596571 19.017143-68.096 33.206857-100.425143 14.409143-32.548571 31.158857-64.073143 49.737143-94.500572 6.875429-11.483429 14.409143-22.454857 21.430857-33.865142-3.364571-5.851429-7.314286-11.117714-10.752-16.822858-30.939429-48.420571-58.221714-99.913143-77.458286-154.477714-12.653714-36.571429-21.942857-74.605714-22.601142-113.371428-0.585143-27.648 3.657143-55.734857 15.506285-80.822858 10.971429-23.04 28.745143-42.715429 50.688-55.442285 24.137143-14.189714 52.150857-19.968 79.725715-20.992M500.004571 389.851429a123.026286 123.026286 0 0 0-109.494857 132.534857 122.733714 122.733714 0 0 0 218.112 66.706285 122.88 122.88 0 0 0-108.617143-199.241142z m2.56 49.298285c14.409143-2.048 29.403429 0.292571 42.569143 6.582857 12.141714 6.070857 22.747429 15.433143 30.061715 26.916572 9.216 14.336 13.165714 31.890286 10.825142 48.859428a73.947429 73.947429 0 0 1-101.668571 58.514286 74.166857 74.166857 0 0 1-44.617143-76.580571 72.630857 72.630857 0 0 1 21.869714-43.958857 73.069714 73.069714 0 0 1 40.96-20.333715z"
          fill="#467CFD"/>
</svg>